<?xml version="1.0" encoding="UTF-8" standalone="no"?>
<svg version="1.1" data-id="Layer_1" xmlns="http://www.w3.org/2000/svg" xmlns:xlink="http://www.w3.org/1999/xlink" x="0px" y="0px"
	 width="100%" viewBox="0 0 139 119" enable-background="new 0 0 139 119" xml:space="preserve">
<path fill="#121212" opacity="1.000000" stroke="none" 
	d="
M94.000000,120.000000 
	C62.666672,120.000000 31.833342,120.000000 1.000008,120.000000 
	C1.000005,80.333344 1.000005,40.666683 1.000003,1.000019 
	C47.333317,1.000013 93.666634,1.000013 139.999969,1.000006 
	C139.999969,40.666649 139.999969,80.333298 139.999985,119.999969 
	C124.833336,120.000000 109.666664,120.000000 94.000000,120.000000 
M46.156399,37.919456 
	C44.764149,38.856743 43.371895,39.794033 41.313805,40.939106 
	C38.962955,43.043541 36.340019,44.916107 34.312077,47.295731 
	C28.136490,54.542271 29.261644,59.693134 37.393597,64.539513 
	C38.639568,65.282074 39.982162,68.124374 39.495766,69.146233 
	C36.244072,75.977577 39.017132,82.185410 41.458248,88.114876 
	C44.531475,95.579727 50.014164,96.862930 56.601616,92.161591 
	C59.002609,90.448044 60.124329,91.631371 62.034157,92.774597 
	C66.484993,95.438889 70.958206,98.710083 75.860336,99.847122 
	C87.403809,102.524605 91.752213,98.052139 90.149460,86.481606 
	C90.109840,86.195618 90.325584,85.874260 90.422226,85.569405 
	C90.654655,85.916275 90.887077,86.263153 91.119499,86.610031 
	C96.394943,83.243835 102.383125,80.614647 106.791275,76.351631 
	C114.921547,68.489021 112.786674,60.995056 101.913132,57.338837 
	C102.318520,52.855663 103.196915,48.271641 103.026978,43.726818 
	C102.812859,38.000648 101.425644,32.345905 96.053055,29.019644 
	C90.871689,25.811775 86.969215,29.354994 83.008324,32.068214 
	C82.876854,32.158268 82.693871,32.173115 82.534897,32.223019 
	C82.714966,31.828287 82.895035,31.433556 83.075096,31.038824 
	C77.476318,28.275795 72.136726,24.552488 66.223007,22.956263 
	C55.052193,19.941046 50.149727,24.997227 51.985630,36.372036 
	C52.054993,36.801785 51.929836,37.262920 51.877205,37.943935 
	C50.124847,37.943935 48.486294,37.943935 46.156399,37.919456 
z"/>
<path fill="#F0F0F0" opacity="1.000000" stroke="none" 
	d="
M46.847740,37.943935 
	C48.486294,37.943935 50.124847,37.943935 51.877205,37.943935 
	C51.929836,37.262920 52.054993,36.801785 51.985630,36.372036 
	C50.149727,24.997227 55.052193,19.941046 66.223007,22.956263 
	C72.136726,24.552488 77.476318,28.275795 83.075096,31.038824 
	C82.895035,31.433556 82.714966,31.828287 82.534897,32.223019 
	C82.693871,32.173115 82.876854,32.158268 83.008324,32.068214 
	C86.969215,29.354994 90.871689,25.811775 96.053055,29.019644 
	C101.425644,32.345905 102.812859,38.000648 103.026978,43.726818 
	C103.196915,48.271641 102.318520,52.855663 101.913132,57.338837 
	C112.786674,60.995056 114.921547,68.489021 106.791275,76.351631 
	C102.383125,80.614647 96.394943,83.243835 91.119499,86.610031 
	C90.887077,86.263153 90.654655,85.916275 90.422226,85.569405 
	C90.325584,85.874260 90.109840,86.195618 90.149460,86.481606 
	C91.752213,98.052139 87.403809,102.524605 75.860336,99.847122 
	C70.958206,98.710083 66.484993,95.438889 62.034157,92.774597 
	C60.124329,91.631371 59.002609,90.448044 56.601616,92.161591 
	C50.014164,96.862930 44.531475,95.579727 41.458248,88.114876 
	C39.017132,82.185410 36.244072,75.977577 39.495766,69.146233 
	C39.982162,68.124374 38.639568,65.282074 37.393597,64.539513 
	C29.261644,59.693134 28.136490,54.542271 34.312077,47.295731 
	C36.340019,44.916107 38.962955,43.043541 41.950233,41.011120 
	C41.918652,42.219559 41.278912,43.373779 40.577118,44.488953 
	C38.751987,47.389156 36.454453,50.090183 35.178200,53.211227 
	C33.788879,56.608784 35.031155,59.255020 38.783298,59.643669 
	C40.433861,54.823975 41.906590,50.308388 43.534843,45.849590 
	C44.513870,43.168625 45.735268,40.576168 46.847740,37.943935 
M58.937492,33.167046 
	C64.730576,31.621950 70.523659,30.076855 77.825089,28.129461 
	C71.497711,27.270849 66.279167,26.301733 61.023281,26.013559 
	C59.508892,25.930527 56.817287,27.587378 56.558887,28.837818 
	C56.145760,30.837038 57.315254,33.163300 57.921139,36.021671 
	C60.176971,38.855484 62.201214,41.918762 64.735565,44.476612 
	C70.483673,50.278008 74.434975,49.452465 77.891022,42.028503 
	C78.168869,41.431660 78.343018,40.787125 78.610092,40.184582 
	C80.081764,36.864388 79.040596,34.230804 75.548569,33.948738 
	C70.107010,33.509205 64.598030,33.904320 58.937492,33.167046 
M90.634789,36.796261 
	C94.100662,40.655190 97.566544,44.514122 101.014641,48.353260 
	C101.414368,42.746975 99.467545,37.740639 95.436142,33.715065 
	C94.441956,32.722321 92.200829,32.619434 90.600708,32.780560 
	C90.014236,32.839615 89.624115,34.848579 88.708885,36.673954 
	C87.747696,37.215294 86.251907,37.534943 85.919312,38.336956 
	C84.590874,41.540356 83.386139,44.836227 82.572243,48.203411 
	C80.785553,55.595135 82.694305,57.875336 90.299591,57.927082 
	C96.380035,57.968452 98.921974,54.571449 96.560272,48.937199 
	C95.295731,45.920406 93.085426,43.308315 91.401772,40.454681 
	C90.770081,39.384037 90.421196,38.146538 90.634789,36.796261 
M54.364433,86.782143 
	C59.259579,81.812096 59.528912,75.238716 60.497349,68.922958 
	C60.581642,68.373215 60.175934,67.249229 59.904297,67.218491 
	C55.450928,66.714500 50.523018,64.993225 46.643589,66.313316 
	C42.567730,67.700241 44.786850,72.401611 46.289955,75.367958 
	C48.276924,79.289192 50.902485,82.886856 52.468834,86.681900 
	C48.504780,82.471252 44.540730,78.260612 40.576675,74.049965 
	C40.165253,74.301964 39.753826,74.553963 39.342400,74.805962 
	C41.571632,79.428795 43.315052,84.383301 46.176426,88.574570 
	C48.682220,92.244987 51.701672,91.279358 54.364433,86.782143 
M79.899620,80.668282 
	C78.558922,79.430267 77.269791,78.130203 75.868279,76.965370 
	C70.805511,72.757584 69.588196,72.895233 65.734581,78.164413 
	C64.966835,79.214172 64.483650,80.469330 63.842129,81.614586 
	C61.657703,85.514336 62.933094,88.488632 67.078690,88.933167 
	C72.659729,89.531624 78.353203,89.081635 85.678864,89.081635 
	C83.344208,85.630783 81.856514,83.431824 79.899620,80.668282 
M50.427845,59.133698 
	C53.925144,57.824280 57.422443,56.514858 61.502083,54.987404 
	C59.878727,51.215057 58.974655,47.962914 57.210793,45.274979 
	C54.289501,40.823246 51.753681,40.425671 48.623837,44.513561 
	C45.211250,48.970730 42.858311,54.239212 40.043442,59.154018 
	C40.470791,59.553440 40.898140,59.952858 41.325485,60.352276 
	C44.090000,60.029247 46.854511,59.706223 50.427845,59.133698 
M94.854950,62.943687 
	C92.308441,63.639732 89.707947,64.183334 87.226143,65.062111 
	C81.219444,67.189011 80.356155,69.536232 83.316498,75.310951 
	C83.840652,76.333405 84.637611,77.212311 85.254189,78.191750 
	C87.518417,81.788452 90.133652,81.593399 93.051132,78.999809 
	C97.871552,74.714561 99.265358,68.839600 101.506233,62.460480 
	C98.954147,62.626019 97.344604,62.730419 94.854950,62.943687 
M101.846443,68.134918 
	C100.345459,72.312149 98.844475,76.489380 96.890671,81.926788 
	C102.773949,77.354340 107.234383,73.372108 107.454727,66.842239 
	C107.502182,65.435875 105.116081,63.947395 102.976234,61.493721 
	C102.441635,64.504044 102.191101,65.914780 101.846443,68.134918 
M73.219322,92.990570 
	C70.885597,92.990570 68.551880,92.990570 66.218155,92.990570 
	C66.167625,93.634483 66.117088,94.278397 66.066551,94.922310 
	C71.106934,95.572754 76.146027,96.704872 81.188110,96.718338 
	C85.087242,96.728752 87.089478,94.149879 85.589256,89.901955 
	C81.701111,90.929527 77.898376,91.934540 73.219322,92.990570 
M73.641922,64.359985 
	C73.766388,62.510662 74.567429,60.256374 73.785309,58.949696 
	C73.233559,58.027901 70.224686,57.749863 68.893326,58.390602 
	C67.878960,58.878792 67.004738,62.323673 67.403809,62.613403 
	C68.978157,63.756367 71.079582,64.173317 73.641922,64.359985 
z"/>
<path fill="#232323" opacity="1.000000" stroke="none" 
	d="
M46.502068,37.931694 
	C45.735268,40.576168 44.513870,43.168625 43.534843,45.849590 
	C41.906590,50.308388 40.433861,54.823975 38.783298,59.643669 
	C35.031155,59.255020 33.788879,56.608784 35.178200,53.211227 
	C36.454453,50.090183 38.751987,47.389156 40.577118,44.488953 
	C41.278912,43.373779 41.918652,42.219559 42.283157,40.907227 
	C43.371895,39.794033 44.764149,38.856743 46.502068,37.931694 
z"/>
<path fill="#171717" opacity="1.000000" stroke="none" 
	d="
M80.134216,80.950577 
	C81.856514,83.431824 83.344208,85.630783 85.678864,89.081635 
	C78.353203,89.081635 72.659729,89.531624 67.078690,88.933167 
	C62.933094,88.488632 61.657703,85.514336 63.842129,81.614586 
	C64.483650,80.469330 64.966835,79.214172 65.734581,78.164413 
	C69.588196,72.895233 70.805511,72.757584 75.868279,76.965370 
	C77.269791,78.130203 78.558922,79.430267 80.134216,80.950577 
z"/>
<path fill="#191919" opacity="1.000000" stroke="none" 
	d="
M50.023438,59.258446 
	C46.854511,59.706223 44.090000,60.029247 41.325485,60.352276 
	C40.898140,59.952858 40.470791,59.553440 40.043442,59.154018 
	C42.858311,54.239212 45.211250,48.970730 48.623837,44.513561 
	C51.753681,40.425671 54.289501,40.823246 57.210793,45.274979 
	C58.974655,47.962914 59.878727,51.215057 61.502083,54.987404 
	C57.422443,56.514858 53.925144,57.824280 50.023438,59.258446 
z"/>
<path fill="#191919" opacity="1.000000" stroke="none" 
	d="
M53.253559,86.623596 
	C50.902485,82.886856 48.276924,79.289192 46.289955,75.367958 
	C44.786850,72.401611 42.567730,67.700241 46.643589,66.313316 
	C50.523018,64.993225 55.450928,66.714500 59.904297,67.218491 
	C60.175934,67.249229 60.581642,68.373215 60.497349,68.922958 
	C59.528912,75.238716 59.259579,81.812096 53.942917,86.773399 
	C53.521400,86.764656 53.253559,86.623596 53.253559,86.623596 
z"/>
<path fill="#191919" opacity="1.000000" stroke="none" 
	d="
M95.295006,62.889252 
	C97.344604,62.730419 98.954147,62.626019 101.506233,62.460480 
	C99.265358,68.839600 97.871552,74.714561 93.051132,78.999809 
	C90.133652,81.593399 87.518417,81.788452 85.254189,78.191750 
	C84.637611,77.212311 83.840652,76.333405 83.316498,75.310951 
	C80.356155,69.536232 81.219444,67.189011 87.226143,65.062111 
	C89.707947,64.183334 92.308441,63.639732 95.295006,62.889252 
z"/>
<path fill="#181818" opacity="1.000000" stroke="none" 
	d="
M89.943375,36.985111 
	C90.421196,38.146538 90.770081,39.384037 91.401772,40.454681 
	C93.085426,43.308315 95.295731,45.920406 96.560272,48.937199 
	C98.921974,54.571449 96.380035,57.968452 90.299591,57.927082 
	C82.694305,57.875336 80.785553,55.595135 82.572243,48.203411 
	C83.386139,44.836227 84.590874,41.540356 85.919312,38.336956 
	C86.251907,37.534943 87.747696,37.215294 88.879982,36.281532 
	C89.051079,35.889111 88.940285,35.940796 88.694290,36.366707 
	C88.967621,36.881802 89.486946,36.970982 90.008736,37.026154 
	C90.011208,36.992142 89.943375,36.985111 89.943375,36.985111 
z"/>
<path fill="#161616" opacity="1.000000" stroke="none" 
	d="
M59.117615,33.945732 
	C64.598030,33.904320 70.107010,33.509205 75.548569,33.948738 
	C79.040596,34.230804 80.081764,36.864388 78.610092,40.184582 
	C78.343018,40.787125 78.168869,41.431660 77.891022,42.028503 
	C74.434975,49.452465 70.483673,50.278008 64.735565,44.476612 
	C62.201214,41.918762 60.176971,38.855484 58.049671,35.418877 
	C58.491341,34.525970 58.804478,34.235851 59.117615,33.945732 
z"/>
<path fill="#272727" opacity="1.000000" stroke="none" 
	d="
M59.027554,33.556389 
	C58.804478,34.235851 58.491341,34.525970 57.996948,35.083694 
	C57.315254,33.163300 56.145760,30.837038 56.558887,28.837818 
	C56.817287,27.587378 59.508892,25.930527 61.023281,26.013559 
	C66.279167,26.301733 71.497711,27.270849 77.825089,28.129461 
	C70.523659,30.076855 64.730576,31.621950 59.027554,33.556389 
z"/>
<path fill="#242424" opacity="1.000000" stroke="none" 
	d="
M52.861198,86.652748 
	C53.253559,86.623596 53.521400,86.764656 53.579109,86.813896 
	C51.701672,91.279358 48.682220,92.244987 46.176426,88.574570 
	C43.315052,84.383301 41.571632,79.428795 39.342400,74.805962 
	C39.753826,74.553963 40.165253,74.301964 40.576675,74.049965 
	C44.540730,78.260612 48.504780,82.471252 52.861198,86.652748 
z"/>
<path fill="#232323" opacity="1.000000" stroke="none" 
	d="
M101.893509,67.730225 
	C102.191101,65.914780 102.441635,64.504044 102.976234,61.493721 
	C105.116081,63.947395 107.502182,65.435875 107.454727,66.842239 
	C107.234383,73.372108 102.773949,77.354340 96.890671,81.926788 
	C98.844475,76.489380 100.345459,72.312149 101.893509,67.730225 
z"/>
<path fill="#232323" opacity="1.000000" stroke="none" 
	d="
M73.657478,92.965057 
	C77.898376,91.934540 81.701111,90.929527 85.589256,89.901955 
	C87.089478,94.149879 85.087242,96.728752 81.188110,96.718338 
	C76.146027,96.704872 71.106934,95.572754 66.066551,94.922310 
	C66.117088,94.278397 66.167625,93.634483 66.218155,92.990570 
	C68.551880,92.990570 70.885597,92.990570 73.657478,92.965057 
z"/>
<path fill="#202020" opacity="1.000000" stroke="none" 
	d="
M89.097755,35.928581 
	C89.624115,34.848579 90.014236,32.839615 90.600708,32.780560 
	C92.200829,32.619434 94.441956,32.722321 95.436142,33.715065 
	C99.467545,37.740639 101.414368,42.746975 101.014641,48.353260 
	C97.566544,44.514122 94.100662,40.655190 90.289078,36.890686 
	C89.943375,36.985111 90.011208,36.992142 90.088821,36.690434 
	C89.757713,36.239414 89.348999,36.090107 88.940285,35.940796 
	C88.940285,35.940796 89.051079,35.889111 89.097755,35.928581 
z"/>
<path fill="#272727" opacity="1.000000" stroke="none" 
	d="
M73.313690,64.609802 
	C71.079582,64.173317 68.978157,63.756367 67.403809,62.613403 
	C67.004738,62.323673 67.878960,58.878792 68.893326,58.390602 
	C70.224686,57.749863 73.233559,58.027901 73.785309,58.949696 
	C74.567429,60.256374 73.766388,62.510662 73.313690,64.609802 
z"/>
<path fill="#F0F0F0" opacity="1.000000" stroke="none" 
	d="
M88.694290,36.366707 
	C89.348999,36.090107 89.757713,36.239414 90.086349,36.724445 
	C89.486946,36.970982 88.967621,36.881802 88.694290,36.366707 
z"/>
</svg>